<?xml version="1.0" standalone="no"?>
<svg xmlns:xlink="http://www.w3.org/1999/xlink" id="wave" style="transform:rotate(180deg); transition: 0.3s" viewBox="0 0 1440 490" version="1.1" xmlns="http://www.w3.org/2000/svg"><defs><linearGradient id="sw-gradient-0" x1="0" x2="0" y1="1" y2="0"><stop stop-color="#FEC260" offset="0%"/><stop stop-color="#3FA796" offset="100%"/></linearGradient></defs><path style="transform:translate(0, 0px); opacity:1" fill="url(#sw-gradient-0)" d="M0,147L20,155.2C40,163,80,180,120,163.3C160,147,200,98,240,106.2C280,114,320,180,360,171.5C400,163,440,82,480,89.8C520,98,560,196,600,212.3C640,229,680,163,720,122.5C760,82,800,65,840,65.3C880,65,920,82,960,106.2C1000,131,1040,163,1080,163.3C1120,163,1160,131,1200,122.5C1240,114,1280,131,1320,163.3C1360,196,1400,245,1440,228.7C1480,212,1520,131,1560,81.7C1600,33,1640,16,1680,8.2C1720,0,1760,0,1800,73.5C1840,147,1880,294,1920,326.7C1960,359,2000,278,2040,204.2C2080,131,2120,65,2160,81.7C2200,98,2240,196,2280,269.5C2320,343,2360,392,2400,408.3C2440,425,2480,408,2520,359.3C2560,310,2600,229,2640,236.8C2680,245,2720,343,2760,359.3C2800,376,2840,310,2860,277.7L2880,245L2880,490L2860,490C2840,490,2800,490,2760,490C2720,490,2680,490,2640,490C2600,490,2560,490,2520,490C2480,490,2440,490,2400,490C2360,490,2320,490,2280,490C2240,490,2200,490,2160,490C2120,490,2080,490,2040,490C2000,490,1960,490,1920,490C1880,490,1840,490,1800,490C1760,490,1720,490,1680,490C1640,490,1600,490,1560,490C1520,490,1480,490,1440,490C1400,490,1360,490,1320,490C1280,490,1240,490,1200,490C1160,490,1120,490,1080,490C1040,490,1000,490,960,490C920,490,880,490,840,490C800,490,760,490,720,490C680,490,640,490,600,490C560,490,520,490,480,490C440,490,400,490,360,490C320,490,280,490,240,490C200,490,160,490,120,490C80,490,40,490,20,490L0,490Z"/></svg>